<mxfile host="Electron" agent="Mozilla/5.0 (X11; Linux x86_64) AppleWebKit/537.36 (KHTML, like Gecko) draw.io/26.0.9 Chrome/128.0.6613.186 Electron/32.2.5 Safari/537.36" version="26.0.9">
  <diagram name="Page-1" id="3OlrjYYsXvtXAFUblGV9">
    <mxGraphModel dx="1050" dy="718" grid="1" gridSize="10" guides="1" tooltips="1" connect="1" arrows="1" fold="1" page="1" pageScale="1" pageWidth="760" pageHeight="520" math="0" shadow="0">
      <root>
        <mxCell id="0" />
        <mxCell id="1" parent="0" />
        <mxCell id="XaLh67fS-6zaw91LC4cL-50" style="edgeStyle=orthogonalEdgeStyle;rounded=0;orthogonalLoop=1;jettySize=auto;html=1;exitX=0.25;exitY=1;exitDx=0;exitDy=0;entryX=1;entryY=0.5;entryDx=0;entryDy=0;" edge="1" parent="1" source="XaLh67fS-6zaw91LC4cL-40" target="XaLh67fS-6zaw91LC4cL-7">
          <mxGeometry relative="1" as="geometry" />
        </mxCell>
        <mxCell id="XaLh67fS-6zaw91LC4cL-43" style="edgeStyle=orthogonalEdgeStyle;rounded=0;orthogonalLoop=1;jettySize=auto;html=1;exitX=0.75;exitY=1;exitDx=0;exitDy=0;entryX=0.75;entryY=0;entryDx=0;entryDy=0;" edge="1" parent="1" source="XaLh67fS-6zaw91LC4cL-22" target="XaLh67fS-6zaw91LC4cL-5">
          <mxGeometry relative="1" as="geometry" />
        </mxCell>
        <mxCell id="XaLh67fS-6zaw91LC4cL-11" style="edgeStyle=orthogonalEdgeStyle;rounded=0;orthogonalLoop=1;jettySize=auto;html=1;exitX=0.5;exitY=1;exitDx=0;exitDy=0;entryX=0.5;entryY=0;entryDx=0;entryDy=0;" edge="1" parent="1" source="XaLh67fS-6zaw91LC4cL-1" target="XaLh67fS-6zaw91LC4cL-2">
          <mxGeometry relative="1" as="geometry" />
        </mxCell>
        <mxCell id="XaLh67fS-6zaw91LC4cL-1" value="cut_osm" style="rounded=0;whiteSpace=wrap;html=1;" vertex="1" parent="1">
          <mxGeometry x="10" y="90" width="140" height="30" as="geometry" />
        </mxCell>
        <mxCell id="XaLh67fS-6zaw91LC4cL-20" style="edgeStyle=orthogonalEdgeStyle;rounded=0;orthogonalLoop=1;jettySize=auto;html=1;exitX=0.5;exitY=1;exitDx=0;exitDy=0;entryX=0.5;entryY=0;entryDx=0;entryDy=0;" edge="1" parent="1" source="XaLh67fS-6zaw91LC4cL-2" target="XaLh67fS-6zaw91LC4cL-3">
          <mxGeometry relative="1" as="geometry" />
        </mxCell>
        <mxCell id="XaLh67fS-6zaw91LC4cL-2" value="filter_osm" style="rounded=0;whiteSpace=wrap;html=1;" vertex="1" parent="1">
          <mxGeometry x="10" y="140" width="140" height="30" as="geometry" />
        </mxCell>
        <mxCell id="XaLh67fS-6zaw91LC4cL-24" value="" style="edgeStyle=orthogonalEdgeStyle;rounded=0;orthogonalLoop=1;jettySize=auto;html=1;" edge="1" parent="1" source="XaLh67fS-6zaw91LC4cL-3" target="XaLh67fS-6zaw91LC4cL-23">
          <mxGeometry relative="1" as="geometry" />
        </mxCell>
        <mxCell id="XaLh67fS-6zaw91LC4cL-3" value="prepare_network" style="rounded=0;whiteSpace=wrap;html=1;" vertex="1" parent="1">
          <mxGeometry x="10" y="190" width="140" height="30" as="geometry" />
        </mxCell>
        <mxCell id="XaLh67fS-6zaw91LC4cL-41" style="edgeStyle=orthogonalEdgeStyle;rounded=0;orthogonalLoop=1;jettySize=auto;html=1;exitX=0.25;exitY=1;exitDx=0;exitDy=0;entryX=0.5;entryY=0;entryDx=0;entryDy=0;" edge="1" parent="1" source="XaLh67fS-6zaw91LC4cL-4" target="XaLh67fS-6zaw91LC4cL-40">
          <mxGeometry relative="1" as="geometry" />
        </mxCell>
        <mxCell id="XaLh67fS-6zaw91LC4cL-4" value="assign_network_nodes" style="rounded=0;whiteSpace=wrap;html=1;" vertex="1" parent="1">
          <mxGeometry x="320" y="90" width="140" height="30" as="geometry" />
        </mxCell>
        <mxCell id="XaLh67fS-6zaw91LC4cL-48" style="edgeStyle=orthogonalEdgeStyle;rounded=0;orthogonalLoop=1;jettySize=auto;html=1;exitX=0.25;exitY=1;exitDx=0;exitDy=0;entryX=0.5;entryY=0;entryDx=0;entryDy=0;" edge="1" parent="1" source="XaLh67fS-6zaw91LC4cL-5" target="XaLh67fS-6zaw91LC4cL-47">
          <mxGeometry relative="1" as="geometry" />
        </mxCell>
        <mxCell id="XaLh67fS-6zaw91LC4cL-5" value="route_trajectories" style="rounded=0;whiteSpace=wrap;html=1;" vertex="1" parent="1">
          <mxGeometry x="320" y="190" width="140" height="30" as="geometry" />
        </mxCell>
        <mxCell id="XaLh67fS-6zaw91LC4cL-49" style="edgeStyle=orthogonalEdgeStyle;rounded=0;orthogonalLoop=1;jettySize=auto;html=1;exitX=0.5;exitY=1;exitDx=0;exitDy=0;entryX=0.5;entryY=0;entryDx=0;entryDy=0;" edge="1" parent="1" source="XaLh67fS-6zaw91LC4cL-6" target="XaLh67fS-6zaw91LC4cL-7">
          <mxGeometry relative="1" as="geometry" />
        </mxCell>
        <mxCell id="XaLh67fS-6zaw91LC4cL-6" value="create_hexagon_grid" style="rounded=0;whiteSpace=wrap;html=1;" vertex="1" parent="1">
          <mxGeometry x="160" y="290" width="140" height="30" as="geometry" />
        </mxCell>
        <mxCell id="XaLh67fS-6zaw91LC4cL-53" style="edgeStyle=orthogonalEdgeStyle;rounded=0;orthogonalLoop=1;jettySize=auto;html=1;exitX=0.5;exitY=1;exitDx=0;exitDy=0;entryX=0.5;entryY=0;entryDx=0;entryDy=0;" edge="1" parent="1" source="XaLh67fS-6zaw91LC4cL-7" target="XaLh67fS-6zaw91LC4cL-52">
          <mxGeometry relative="1" as="geometry" />
        </mxCell>
        <mxCell id="XaLh67fS-6zaw91LC4cL-7" value="create_stop_grid" style="rounded=0;whiteSpace=wrap;html=1;" vertex="1" parent="1">
          <mxGeometry x="160" y="340" width="140" height="30" as="geometry" />
        </mxCell>
        <mxCell id="XaLh67fS-6zaw91LC4cL-56" style="edgeStyle=orthogonalEdgeStyle;rounded=0;orthogonalLoop=1;jettySize=auto;html=1;exitX=0.5;exitY=1;exitDx=0;exitDy=0;entryX=0.5;entryY=0;entryDx=0;entryDy=0;" edge="1" parent="1" source="XaLh67fS-6zaw91LC4cL-8" target="XaLh67fS-6zaw91LC4cL-9">
          <mxGeometry relative="1" as="geometry" />
        </mxCell>
        <mxCell id="XaLh67fS-6zaw91LC4cL-8" value="aggregate_flows" style="rounded=0;whiteSpace=wrap;html=1;" vertex="1" parent="1">
          <mxGeometry x="390" y="290" width="140" height="30" as="geometry" />
        </mxCell>
        <mxCell id="XaLh67fS-6zaw91LC4cL-60" style="edgeStyle=orthogonalEdgeStyle;rounded=0;orthogonalLoop=1;jettySize=auto;html=1;exitX=0.5;exitY=1;exitDx=0;exitDy=0;entryX=0.5;entryY=0;entryDx=0;entryDy=0;" edge="1" parent="1" source="XaLh67fS-6zaw91LC4cL-9" target="XaLh67fS-6zaw91LC4cL-59">
          <mxGeometry relative="1" as="geometry" />
        </mxCell>
        <mxCell id="XaLh67fS-6zaw91LC4cL-9" value="create_flow_network" style="rounded=0;whiteSpace=wrap;html=1;" vertex="1" parent="1">
          <mxGeometry x="390" y="430" width="140" height="30" as="geometry" />
        </mxCell>
        <mxCell id="XaLh67fS-6zaw91LC4cL-10" value="generate_synthetic&lt;div&gt;_operator&lt;/div&gt;" style="rounded=0;whiteSpace=wrap;html=1;dashed=1;" vertex="1" parent="1">
          <mxGeometry x="600" y="90" width="140" height="30" as="geometry" />
        </mxCell>
        <mxCell id="XaLh67fS-6zaw91LC4cL-17" style="edgeStyle=orthogonalEdgeStyle;rounded=0;orthogonalLoop=1;jettySize=auto;html=1;exitX=0.25;exitY=1;exitDx=0;exitDy=0;entryX=0.25;entryY=0;entryDx=0;entryDy=0;" edge="1" parent="1" source="XaLh67fS-6zaw91LC4cL-13" target="XaLh67fS-6zaw91LC4cL-1">
          <mxGeometry relative="1" as="geometry" />
        </mxCell>
        <mxCell id="XaLh67fS-6zaw91LC4cL-13" value="OpenStreetMap data" style="rounded=1;whiteSpace=wrap;html=1;fillColor=#fff2cc;strokeColor=#d6b656;" vertex="1" parent="1">
          <mxGeometry x="10" y="10" width="140" height="30" as="geometry" />
        </mxCell>
        <mxCell id="XaLh67fS-6zaw91LC4cL-15" value="Cuts OSM data to the selected study area" style="text;html=1;align=left;verticalAlign=top;whiteSpace=wrap;rounded=0;fontSize=8;spacingLeft=2;" vertex="1" parent="1">
          <mxGeometry x="150" y="90" width="60" height="30" as="geometry" />
        </mxCell>
        <mxCell id="XaLh67fS-6zaw91LC4cL-18" style="edgeStyle=orthogonalEdgeStyle;rounded=0;orthogonalLoop=1;jettySize=auto;html=1;exitX=0.25;exitY=1;exitDx=0;exitDy=0;entryX=0.75;entryY=0;entryDx=0;entryDy=0;" edge="1" parent="1" source="XaLh67fS-6zaw91LC4cL-16" target="XaLh67fS-6zaw91LC4cL-1">
          <mxGeometry relative="1" as="geometry" />
        </mxCell>
        <mxCell id="XaLh67fS-6zaw91LC4cL-44" style="edgeStyle=orthogonalEdgeStyle;rounded=0;orthogonalLoop=1;jettySize=auto;html=1;exitX=0.75;exitY=1;exitDx=0;exitDy=0;entryX=0.75;entryY=0;entryDx=0;entryDy=0;" edge="1" parent="1" source="XaLh67fS-6zaw91LC4cL-16" target="XaLh67fS-6zaw91LC4cL-6">
          <mxGeometry relative="1" as="geometry" />
        </mxCell>
        <mxCell id="XaLh67fS-6zaw91LC4cL-16" value="Study area (geojson)" style="rounded=1;whiteSpace=wrap;html=1;fillColor=#fff2cc;strokeColor=#d6b656;" vertex="1" parent="1">
          <mxGeometry x="160" y="10" width="140" height="30" as="geometry" />
        </mxCell>
        <mxCell id="XaLh67fS-6zaw91LC4cL-19" value="Filters OSM data for the road network" style="text;html=1;align=left;verticalAlign=top;whiteSpace=wrap;rounded=0;fontSize=8;spacingLeft=2;" vertex="1" parent="1">
          <mxGeometry x="150" y="140" width="60" height="30" as="geometry" />
        </mxCell>
        <mxCell id="XaLh67fS-6zaw91LC4cL-21" value="Prepares a network graph for routing&amp;nbsp;" style="text;html=1;align=left;verticalAlign=top;whiteSpace=wrap;rounded=0;fontSize=8;spacingLeft=2;" vertex="1" parent="1">
          <mxGeometry x="150" y="190" width="60" height="30" as="geometry" />
        </mxCell>
        <mxCell id="XaLh67fS-6zaw91LC4cL-34" style="edgeStyle=orthogonalEdgeStyle;rounded=0;orthogonalLoop=1;jettySize=auto;html=1;exitX=0.5;exitY=1;exitDx=0;exitDy=0;entryX=0.5;entryY=0;entryDx=0;entryDy=0;" edge="1" parent="1" source="XaLh67fS-6zaw91LC4cL-22" target="XaLh67fS-6zaw91LC4cL-4">
          <mxGeometry relative="1" as="geometry" />
        </mxCell>
        <mxCell id="XaLh67fS-6zaw91LC4cL-22" value="Operator trajectories &lt;br&gt;1, 2, 3, ..." style="rounded=1;whiteSpace=wrap;html=1;fillColor=#fff2cc;strokeColor=#d6b656;" vertex="1" parent="1">
          <mxGeometry x="320" y="10" width="140" height="30" as="geometry" />
        </mxCell>
        <mxCell id="XaLh67fS-6zaw91LC4cL-29" style="edgeStyle=orthogonalEdgeStyle;rounded=0;orthogonalLoop=1;jettySize=auto;html=1;exitX=1;exitY=0.5;exitDx=0;exitDy=0;entryX=0;entryY=0.5;entryDx=0;entryDy=0;" edge="1" parent="1" source="XaLh67fS-6zaw91LC4cL-23" target="XaLh67fS-6zaw91LC4cL-4">
          <mxGeometry relative="1" as="geometry" />
        </mxCell>
        <mxCell id="XaLh67fS-6zaw91LC4cL-39" style="edgeStyle=orthogonalEdgeStyle;rounded=0;orthogonalLoop=1;jettySize=auto;html=1;exitX=1;exitY=0.5;exitDx=0;exitDy=0;entryX=0;entryY=0.5;entryDx=0;entryDy=0;" edge="1" parent="1" source="XaLh67fS-6zaw91LC4cL-23" target="XaLh67fS-6zaw91LC4cL-5">
          <mxGeometry relative="1" as="geometry" />
        </mxCell>
        <mxCell id="XaLh67fS-6zaw91LC4cL-57" style="edgeStyle=orthogonalEdgeStyle;rounded=0;orthogonalLoop=1;jettySize=auto;html=1;exitX=0.5;exitY=1;exitDx=0;exitDy=0;entryX=0;entryY=0.5;entryDx=0;entryDy=0;" edge="1" parent="1" source="XaLh67fS-6zaw91LC4cL-23" target="XaLh67fS-6zaw91LC4cL-9">
          <mxGeometry relative="1" as="geometry" />
        </mxCell>
        <mxCell id="XaLh67fS-6zaw91LC4cL-23" value="Network (graphml)" style="rounded=1;whiteSpace=wrap;html=1;fillColor=#f5f5f5;fontColor=#333333;strokeColor=#666666;" vertex="1" parent="1">
          <mxGeometry x="10" y="240" width="140" height="30" as="geometry" />
        </mxCell>
        <mxCell id="XaLh67fS-6zaw91LC4cL-27" value="Assigns the closest network node to each vehicle stop" style="text;html=1;align=left;verticalAlign=top;whiteSpace=wrap;rounded=0;fontSize=8;spacingLeft=2;" vertex="1" parent="1">
          <mxGeometry x="460" y="90" width="110" height="30" as="geometry" />
        </mxCell>
        <mxCell id="XaLh67fS-6zaw91LC4cL-37" value="Finds the shortest path between stops for each trajectoriy" style="text;html=1;align=left;verticalAlign=top;whiteSpace=wrap;rounded=0;fontSize=8;spacingLeft=2;" vertex="1" parent="1">
          <mxGeometry x="460" y="190" width="110" height="30" as="geometry" />
        </mxCell>
        <mxCell id="XaLh67fS-6zaw91LC4cL-38" value="Trajectories (stop sequences by coordinate) for each operator" style="text;html=1;align=left;verticalAlign=top;whiteSpace=wrap;rounded=0;fontSize=8;spacingLeft=2;" vertex="1" parent="1">
          <mxGeometry x="460" y="10" width="140" height="30" as="geometry" />
        </mxCell>
        <mxCell id="XaLh67fS-6zaw91LC4cL-40" value="Node mapping for operator N" style="rounded=1;whiteSpace=wrap;html=1;fillColor=#f5f5f5;fontColor=#333333;strokeColor=#666666;" vertex="1" parent="1">
          <mxGeometry x="320" y="140" width="90" height="30" as="geometry" />
        </mxCell>
        <mxCell id="XaLh67fS-6zaw91LC4cL-42" style="edgeStyle=orthogonalEdgeStyle;rounded=0;orthogonalLoop=1;jettySize=auto;html=1;exitX=0.5;exitY=1;exitDx=0;exitDy=0;entryX=0.329;entryY=0;entryDx=0;entryDy=0;entryPerimeter=0;" edge="1" parent="1" source="XaLh67fS-6zaw91LC4cL-40" target="XaLh67fS-6zaw91LC4cL-5">
          <mxGeometry relative="1" as="geometry" />
        </mxCell>
        <mxCell id="XaLh67fS-6zaw91LC4cL-46" style="edgeStyle=orthogonalEdgeStyle;rounded=0;orthogonalLoop=1;jettySize=auto;html=1;exitX=1;exitY=0.5;exitDx=0;exitDy=0;entryX=0;entryY=0.5;entryDx=0;entryDy=0;" edge="1" parent="1" source="XaLh67fS-6zaw91LC4cL-45" target="XaLh67fS-6zaw91LC4cL-6">
          <mxGeometry relative="1" as="geometry" />
        </mxCell>
        <mxCell id="XaLh67fS-6zaw91LC4cL-45" value="Param: hexagon size" style="rounded=1;whiteSpace=wrap;html=1;fillColor=#fff2cc;strokeColor=#d6b656;" vertex="1" parent="1">
          <mxGeometry x="60" y="290" width="80" height="30" as="geometry" />
        </mxCell>
        <mxCell id="XaLh67fS-6zaw91LC4cL-54" style="edgeStyle=orthogonalEdgeStyle;rounded=0;orthogonalLoop=1;jettySize=auto;html=1;exitX=0.5;exitY=1;exitDx=0;exitDy=0;entryX=0;entryY=0.5;entryDx=0;entryDy=0;" edge="1" parent="1" source="XaLh67fS-6zaw91LC4cL-47" target="XaLh67fS-6zaw91LC4cL-8">
          <mxGeometry relative="1" as="geometry" />
        </mxCell>
        <mxCell id="XaLh67fS-6zaw91LC4cL-47" value="Routes for operator N" style="rounded=1;whiteSpace=wrap;html=1;fillColor=#f5f5f5;fontColor=#333333;strokeColor=#666666;" vertex="1" parent="1">
          <mxGeometry x="320" y="240" width="90" height="30" as="geometry" />
        </mxCell>
        <mxCell id="XaLh67fS-6zaw91LC4cL-51" value="Aggregate stops for all operators on the grid" style="text;html=1;align=right;verticalAlign=top;whiteSpace=wrap;rounded=0;fontSize=8;spacingLeft=2;" vertex="1" parent="1">
          <mxGeometry x="90" y="340" width="60" height="30" as="geometry" />
        </mxCell>
        <mxCell id="XaLh67fS-6zaw91LC4cL-52" value="Hexagon grid with stop counts" style="rounded=1;whiteSpace=wrap;html=1;fillColor=#dae8fc;strokeColor=#6c8ebf;" vertex="1" parent="1">
          <mxGeometry x="160" y="390" width="140" height="30" as="geometry" />
        </mxCell>
        <mxCell id="XaLh67fS-6zaw91LC4cL-55" value="Aggregate flow per link for an average day for operator N" style="text;html=1;align=left;verticalAlign=top;whiteSpace=wrap;rounded=0;fontSize=8;spacingLeft=2;" vertex="1" parent="1">
          <mxGeometry x="530" y="290" width="110" height="30" as="geometry" />
        </mxCell>
        <mxCell id="XaLh67fS-6zaw91LC4cL-58" value="Sum up average daily flow per link for all operators" style="text;html=1;align=left;verticalAlign=top;whiteSpace=wrap;rounded=0;fontSize=8;spacingLeft=2;" vertex="1" parent="1">
          <mxGeometry x="530" y="430" width="110" height="30" as="geometry" />
        </mxCell>
        <mxCell id="XaLh67fS-6zaw91LC4cL-59" value="Network with average daily link flows" style="rounded=1;whiteSpace=wrap;html=1;fillColor=#dae8fc;strokeColor=#6c8ebf;" vertex="1" parent="1">
          <mxGeometry x="390" y="480" width="140" height="30" as="geometry" />
        </mxCell>
        <mxCell id="XaLh67fS-6zaw91LC4cL-64" style="edgeStyle=orthogonalEdgeStyle;rounded=0;orthogonalLoop=1;jettySize=auto;html=1;exitX=0.5;exitY=1;exitDx=0;exitDy=0;entryX=0.5;entryY=0;entryDx=0;entryDy=0;" edge="1" parent="1" source="XaLh67fS-6zaw91LC4cL-63" target="XaLh67fS-6zaw91LC4cL-10">
          <mxGeometry relative="1" as="geometry" />
        </mxCell>
        <mxCell id="XaLh67fS-6zaw91LC4cL-63" value="Synthetic operator data" style="rounded=1;whiteSpace=wrap;html=1;fillColor=#fff2cc;strokeColor=#d6b656;dashed=1;" vertex="1" parent="1">
          <mxGeometry x="600" y="10" width="140" height="30" as="geometry" />
        </mxCell>
        <mxCell id="XaLh67fS-6zaw91LC4cL-65" style="edgeStyle=orthogonalEdgeStyle;rounded=0;orthogonalLoop=1;jettySize=auto;html=1;exitX=0.25;exitY=1;exitDx=0;exitDy=0;entryX=0.864;entryY=1.15;entryDx=0;entryDy=0;entryPerimeter=0;dashed=1;" edge="1" parent="1" source="XaLh67fS-6zaw91LC4cL-10" target="XaLh67fS-6zaw91LC4cL-22">
          <mxGeometry relative="1" as="geometry">
            <Array as="points">
              <mxPoint x="635" y="140" />
              <mxPoint x="580" y="140" />
              <mxPoint x="580" y="70" />
              <mxPoint x="441" y="70" />
            </Array>
          </mxGeometry>
        </mxCell>
        <mxCell id="XaLh67fS-6zaw91LC4cL-66" value="Optionally, generate synthetic operator data based on high-level input parameters" style="text;html=1;align=left;verticalAlign=top;whiteSpace=wrap;rounded=0;fontSize=8;spacingLeft=2;" vertex="1" parent="1">
          <mxGeometry x="640" y="120" width="110" height="30" as="geometry" />
        </mxCell>
      </root>
    </mxGraphModel>
  </diagram>
</mxfile>
